HIERARCHY
ROOT Hips
{
	OFFSET 0.000000 0.000000 0.000000
	CHANNELS 6 Xposition Yposition Zposition Zrotation Yrotation Xrotation 
	JOINT LHipJoint
	{
		OFFSET 0.000000 0.000000 0.000000
		CHANNELS 3 Zrotation Yrotation Xrotation
		JOINT LeftUpLeg
		{
			OFFSET 1.363060 -1.794630 0.839290
			CHANNELS 3 Zrotation Yrotation Xrotation
			JOINT LeftLeg
			{
				OFFSET 2.448110 -6.726130 0.000000
				CHANNELS 3 Zrotation Yrotation Xrotation
				JOINT LeftFoot
				{
					OFFSET 2.562200 -7.039590 0.000000
					CHANNELS 3 Zrotation Yrotation Xrotation
					JOINT LeftToeBase
					{
						OFFSET 0.157640 -0.433110 2.322550
						CHANNELS 3 Zrotation Yrotation Xrotation
						End Site
						{
							OFFSET 0.000000 0.000000 0.000000
						}
					}
				}
			}
		}
	}
	JOINT RHipJoint
	{
		OFFSET 0.000000 0.000000 0.000000
		CHANNELS 3 Zrotation Yrotation Xrotation
		JOINT RightUpLeg
		{
			OFFSET -1.305520 -1.794630 0.839290
			CHANNELS 3 Zrotation Yrotation Xrotation
			JOINT RightLeg
			{
				OFFSET -2.542530 -6.985550 0.000000
				CHANNELS 3 Zrotation Yrotation Xrotation
				JOINT RightFoot
				{
					OFFSET -2.568260 -7.056230 0.000000
					CHANNELS 3 Zrotation Yrotation Xrotation
					JOINT RightToeBase
					{
						OFFSET -0.164730 -0.452590 2.363150
						CHANNELS 3 Zrotation Yrotation Xrotation
						End Site
						{
							OFFSET 0.000000 0.000000 0.000000
						}
					}
				}
			}
		}
	}
	JOINT LowerBack
	{
		OFFSET 0.000000 0.000000 0.000000
		CHANNELS 3 Zrotation Yrotation Xrotation
		JOINT Spine
		{
			OFFSET 0.028270 2.035590 -0.193380
			CHANNELS 3 Zrotation Yrotation Xrotation
			JOINT Spine1
			{
				OFFSET 0.056720 2.048850 -0.042750
				CHANNELS 3 Zrotation Yrotation Xrotation
				JOINT Neck
				{
					OFFSET 0.000000 0.000000 0.000000
					CHANNELS 3 Zrotation Yrotation Xrotation
					JOINT Neck1
					{
						OFFSET -0.054170 1.746240 0.172020
						CHANNELS 3 Zrotation Yrotation Xrotation
						JOINT Head
						{
							OFFSET 0.104070 1.761360 -0.123970
							CHANNELS 3 Zrotation Yrotation Xrotation
							End Site
							{
								OFFSET 0.000000 0.000000 0.000000
							}
						}
					}
				}
				JOINT LeftShoulder
				{
					OFFSET 0.000000 0.000000 0.000000
					CHANNELS 3 Zrotation Yrotation Xrotation
					JOINT LeftArm
					{
						OFFSET 3.362410 1.200890 -0.311210
						CHANNELS 3 Zrotation Yrotation Xrotation
						JOINT LeftForeArm
						{
							OFFSET 4.983000 -0.000000 -0.000000
							CHANNELS 3 Zrotation Yrotation Xrotation
							JOINT LeftHand
							{
								OFFSET 3.483560 -0.000000 -0.000000
								CHANNELS 3 Zrotation Yrotation Xrotation
								JOINT LeftFingerBase
								{
									OFFSET 0.000000 0.000000 0.000000
									CHANNELS 3 Zrotation Yrotation Xrotation
									JOINT LeftHandIndex1
									{
										OFFSET 0.715260 -0.000000 -0.000000
										CHANNELS 3 Zrotation Yrotation Xrotation
										End Site
										{
											OFFSET 0.000000 0.000000 0.000000
										}
									}
								}
								JOINT LThumb
								{
									OFFSET 0.000000 0.000000 0.000000
									CHANNELS 3 Zrotation Yrotation Xrotation
									End Site
									{
										OFFSET 0.000000 0.000000 0.000000
									}
								}
							}
						}
					}
				}
				JOINT RightShoulder
				{
					OFFSET 0.000000 0.000000 0.000000
					CHANNELS 3 Zrotation Yrotation Xrotation
					JOINT RightArm
					{
						OFFSET -3.136600 1.374050 -0.404650
						CHANNELS 3 Zrotation Yrotation Xrotation
						JOINT RightForeArm
						{
							OFFSET -5.241900 -0.000000 -0.000000
							CHANNELS 3 Zrotation Yrotation Xrotation
							JOINT RightHand
							{
								OFFSET -3.444170 -0.000000 -0.000000
								CHANNELS 3 Zrotation Yrotation Xrotation
								JOINT RightFingerBase
								{
									OFFSET 0.000000 0.000000 0.000000
									CHANNELS 3 Zrotation Yrotation Xrotation
									JOINT RightHandIndex1
									{
										OFFSET -0.622530 -0.000000 -0.000000
										CHANNELS 3 Zrotation Yrotation Xrotation
										End Site
										{
											OFFSET 0.000000 0.000000 0.000000
										}
									}
								}
								JOINT RThumb
								{
									OFFSET 0.000000 0.000000 0.000000
									CHANNELS 3 Zrotation Yrotation Xrotation
									End Site
									{
										OFFSET 0.000000 0.000000 0.000000
									}
								}
							}
						}
					}
				}
			}
		}
	}
}
MOTION
Frames: 11
Frame Time: 0.008333
0.144373 16.362069 -28.605578 4.646259 4.503431 21.777600 0.829602 0.059052 0.071599 -20.122299 -7.480368 -33.607348 10.039761 18.248716 60.930042 4.410988 -15.125492 -4.601924 1.379600 -7.432400 -21.002900 -2.012237 -1.031871 0.799426 16.678036 7.537556 -28.789563 -17.087856 -19.909934 81.877222 -1.623582 4.933106 16.094507 -0.136000 2.376600 -6.547700 -4.190440 -0.628914 16.639867 0.272218 -1.582573 -1.337023 2.573769 -0.532965 -4.119049 -6.676777 -5.614896 -11.076368 8.825500 -6.141771 -1.922354 4.780900 -2.487600 3.593400 -3.915287 2.561592 -2.434929 -77.416719 2.715533 37.634751 62.138292 -56.925376 -45.173467 0.015210 -3.276075 -23.625453 24.730293 17.353835 9.690800 -7.125000 0.000000 0.000000 -2.495500 52.469200 -0.459000 1.274683 -0.910521 -1.790892 82.990357 -10.334013 37.777327 -63.752621 54.829533 -45.303004 2.213241 -0.115010 -0.558015 -21.674401 19.951673 -8.527000 7.125000 0.000000 0.000000 2.886700 -8.510500 2.430900
0.143619 16.360922 -28.521311 4.653176 4.512122 21.816256 0.807092 0.075234 0.096862 -20.149958 -7.326158 -33.168908 9.922228 18.160624 60.556136 4.440114 -15.130064 -4.716783 1.413523 -7.518000 -21.260077 -2.048674 -1.017068 0.783564 16.419636 7.663456 -29.806220 -17.437901 -20.002378 82.861511 -1.593973 4.858423 15.737235 -0.277955 3.154106 -8.730236 -4.198559 -0.643104 16.733114 0.255383 -1.604151 -1.337641 2.533320 -0.547821 -4.133429 -6.641333 -5.667515 -11.272320 8.889339 -6.204752 -1.949535 4.787713 -2.508502 3.642653 -3.896535 2.550647 -2.411406 -77.439168 2.145562 37.685072 63.286336 -57.248359 -46.218908 0.033095 -3.275106 -23.731231 24.956011 17.551396 9.875541 -7.125000 0.000000 0.000000 -2.324530 52.731429 -0.439744 1.256004 -0.903982 -1.808775 83.129184 -10.878047 37.328695 -63.841667 54.858424 -45.384799 2.228425 -0.093620 -1.054635 -21.780688 19.981651 -8.585116 7.125000 0.000000 0.000000 2.811349 -8.464972 2.369666
0.142864 16.359776 -28.437043 4.660092 4.520813 21.854912 0.784582 0.091416 0.122125 -20.177617 -7.171948 -32.730468 9.804695 18.072532 60.182229 4.469240 -15.134635 -4.831643 1.447445 -7.603601 -21.517253 -2.085111 -1.002265 0.767702 16.161236 7.789356 -30.822877 -17.787946 -20.094821 83.845801 -1.564363 4.783740 15.379963 -0.419910 3.931612 -10.912773 -4.206679 -0.657294 16.826362 0.238549 -1.625729 -1.338258 2.492872 -0.562677 -4.147809 -6.605889 -5.720134 -11.468273 8.953177 -6.267733 -1.976715 4.794527 -2.529404 3.691905 -3.877784 2.539703 -2.387883 -77.461618 1.575590 37.735393 64.434379 -57.571342 -47.264348 0.050981 -3.274137 -23.837009 25.181730 17.748958 10.060282 -7.125000 0.000000 0.000000 -2.153560 52.993658 -0.420487 1.237325 -0.897443 -1.826659 83.268010 -11.422082 36.880064 -63.930712 54.887316 -45.466594 2.243609 -0.072230 -1.551255 -21.886976 20.011629 -8.643232 7.125000 0.000000 0.000000 2.735997 -8.419443 2.308432
0.142110 16.358629 -28.352776 4.667009 4.529504 21.893569 0.762071 0.107598 0.147389 -20.205277 -7.017739 -32.292028 9.687162 17.984439 59.808323 4.498366 -15.139207 -4.946502 1.481368 -7.689201 -21.774430 -2.121548 -0.987462 0.751839 15.902836 7.915256 -31.839534 -18.137990 -20.187265 84.830090 -1.534754 4.709057 15.022690 -0.561866 4.709118 -13.095309 -4.214798 -0.671484 16.919609 0.221714 -1.647307 -1.338876 2.452423 -0.577532 -4.162189 -6.570446 -5.772753 -11.664225 9.017016 -6.330714 -2.003896 4.801340 -2.550306 3.741158 -3.859032 2.528758 -2.364360 -77.484067 1.005619 37.785715 65.582423 -57.894325 -48.309789 0.068866 -3.273167 -23.942787 25.407448 17.946519 10.245023 -7.125000 0.000000 0.000000 -1.982590 53.255887 -0.401231 1.218646 -0.890904 -1.844542 83.406837 -11.966116 36.431432 -64.019758 54.916207 -45.548389 2.258793 -0.050840 -2.047875 -21.993263 20.041606 -8.701348 7.125000 0.000000 0.000000 2.660646 -8.373915 2.247198
0.141954 16.358777 -28.267068 4.654779 4.537893 21.936240 0.735234 0.125160 0.175308 -20.207413 -6.851345 -31.847788 9.559231 17.889504 59.400415 4.533925 -15.185990 -5.034301 1.497735 -7.730479 -21.898468 -2.157738 -0.973359 0.739160 15.653828 8.052914 -32.876431 -18.465848 -20.269831 85.746243 -1.502780 4.602125 14.729033 -0.627669 5.069592 -14.107190 -4.208961 -0.696942 17.014503 0.215938 -1.679227 -1.345699 2.452196 -0.597415 -4.193375 -6.580247 -5.820506 -11.868309 9.073651 -6.377730 -2.014059 4.814454 -2.564118 3.800396 -3.834458 2.521051 -2.341571 -77.562081 0.497292 37.755168 66.903310 -58.256399 -49.504758 0.086828 -3.265077 -24.062738 25.607989 18.104590 10.399018 -7.125000 0.000000 0.000000 -1.827520 53.463916 -0.379652 1.196776 -0.885354 -1.861975 83.493424 -12.564604 36.021258 -64.239251 54.984297 -45.751945 2.280812 -0.028478 -2.570369 -22.157853 20.109969 -8.802145 7.125000 0.000000 0.000000 2.547334 -8.277500 2.155637
0.142316 16.360044 -28.180114 4.625991 4.546020 21.982385 0.704654 0.143915 0.205525 -20.187475 -6.674414 -31.398532 9.422307 17.788651 58.963102 4.575047 -15.269281 -5.098697 1.498918 -7.733424 -21.907360 -2.193714 -0.959862 0.729234 15.412942 8.200741 -33.930833 -18.774516 -20.343855 86.603468 -1.468760 4.467301 14.490392 -0.627611 5.069390 -14.106613 -4.191052 -0.732144 17.110821 0.219725 -1.720091 -1.357891 2.486756 -0.621645 -4.239095 -6.629180 -5.864052 -12.079426 9.124056 -6.410939 -2.009505 4.833018 -2.571797 3.868270 -3.804847 2.516145 -2.319416 -77.688153 0.042279 37.654681 68.373682 -58.652281 -50.829048 0.104855 -3.250828 -24.194947 25.786754 18.228506 10.526423 -7.125000 0.000000 0.000000 -1.686200 53.625070 -0.356065 1.172147 -0.880660 -1.879017 83.534832 -13.210186 35.644344 -64.571564 55.086287 -46.060807 2.308743 -0.005276 -3.115243 -22.372866 20.211530 -8.939856 7.125000 0.000000 0.000000 2.401193 -8.137074 2.037846
0.142678 16.361312 -28.093161 4.597202 4.554147 22.028529 0.674074 0.162671 0.235742 -20.167538 -6.497484 -30.949277 9.285382 17.687797 58.525788 4.616169 -15.352573 -5.163093 1.500102 -7.736369 -21.916252 -2.229691 -0.946365 0.719307 15.172057 8.348568 -34.985235 -19.083184 -20.417878 87.460692 -1.434741 4.332478 14.251752 -0.627554 5.069187 -14.106036 -4.173144 -0.767346 17.207139 0.223513 -1.760955 -1.370082 2.521316 -0.645875 -4.284815 -6.678113 -5.907597 -12.290543 9.174461 -6.444147 -2.004952 4.851582 -2.579477 3.936144 -3.775236 2.511239 -2.297261 -77.814224 -0.412734 37.554194 69.844055 -59.048163 -52.153339 0.122882 -3.236579 -24.327155 25.965519 18.352421 10.653828 -7.125000 0.000000 0.000000 -1.544879 53.786224 -0.332478 1.147518 -0.875966 -1.896060 83.576239 -13.855769 35.267429 -64.903877 55.188278 -46.369669 2.336674 0.017927 -3.660116 -22.587879 20.313091 -9.077568 7.125000 0.000000 0.000000 2.255051 -7.996649 1.920055
0.143023 16.362479 -28.006089 4.571657 4.564729 22.074656 0.643103 0.181592 0.266106 -20.149288 -6.323520 -30.497374 9.147335 17.586079 58.085315 4.656387 -15.431850 -5.224649 1.502001 -7.741056 -21.930404 -2.265253 -0.933159 0.709373 14.928138 8.489964 -36.037635 -19.389146 -20.490773 88.309920 -1.400720 4.197421 14.012808 -0.618368 5.021828 -13.972791 -4.157553 -0.803813 17.299774 0.227465 -1.803603 -1.381543 2.557534 -0.671067 -4.326861 -6.727499 -5.950146 -12.495970 9.225309 -6.476061 -2.003684 4.870764 -2.586581 4.000573 -3.745226 2.507366 -2.274392 -77.941534 -0.864454 37.448029 71.334776 -59.447742 -53.496060 0.140807 -3.215935 -24.469333 26.077843 18.412231 10.720789 -7.125000 0.000000 0.000000 -1.456974 53.858403 -0.313510 1.122347 -0.872192 -1.912493 83.615604 -14.502587 34.894104 -65.250635 55.294580 -46.692601 2.364709 0.042587 -4.215578 -22.806133 20.406942 -9.213223 7.125000 0.000000 0.000000 2.105789 -7.864710 1.799124
0.143143 16.362358 -27.917505 4.587642 4.606740 22.120559 0.607126 0.202637 0.298359 -20.152647 -6.187540 -30.011581 8.994912 17.473292 57.604402 4.685036 -15.459747 -5.249866 1.513059 -7.768050 -22.011876 -2.295518 -0.923679 0.699334 14.645394 8.549046 -37.064407 -19.660461 -20.549217 89.056790 -1.366670 4.059371 13.769972 -0.492349 4.370861 -12.141404 -4.171630 -0.856468 17.345253 0.233530 -1.869088 -1.383659 2.614987 -0.708576 -4.321875 -6.782692 -5.979938 -12.628580 9.281815 -6.491411 -2.044481 4.897874 -2.586321 4.020897 -3.710110 2.516725 -2.242376 -78.084699 -1.274029 37.269184 73.085956 -59.894637 -55.074700 0.157419 -3.113430 -24.739123 25.339720 17.651480 10.014073 -7.125000 0.000000 0.000000 -2.052770 52.791703 -0.353669 1.090231 -0.880195 -1.921126 83.628823 -15.165217 34.566706 -65.782284 55.456069 -47.195619 2.394077 0.085903 -4.906579 -23.065879 20.402097 -9.322554 7.125000 0.000000 0.000000 1.916573 -7.841382 1.637999
0.143264 16.362237 -27.828922 4.603627 4.648751 22.166461 0.571149 0.223683 0.330611 -20.156005 -6.051559 -29.525788 8.842488 17.360504 57.123489 4.713685 -15.487644 -5.275083 1.524116 -7.795044 -22.093348 -2.325784 -0.914198 0.689296 14.362650 8.608128 -38.091180 -19.931777 -20.607660 89.803660 -1.332621 3.921321 13.527137 -0.366331 3.719894 -10.310017 -4.185707 -0.909124 17.390733 0.239594 -1.934573 -1.385775 2.672440 -0.746085 -4.316890 -6.837885 -6.009731 -12.761189 9.338321 -6.506761 -2.085278 4.924983 -2.586062 4.041222 -3.674994 2.526084 -2.210359 -78.227865 -1.683603 37.090338 74.837136 -60.341532 -56.653339 0.174031 -3.010925 -25.008912 24.601597 16.890728 9.307357 -7.125000 0.000000 0.000000 -2.648566 51.725004 -0.393827 1.058115 -0.888199 -1.929759 83.642042 -15.827848 34.239309 -66.313933 55.617557 -47.698637 2.423446 0.129218 -5.597579 -23.325625 20.397252 -9.431886 7.125000 0.000000 0.000000 1.727357 -7.818055 1.476874
0.143385 16.362116 -27.740338 4.619612 4.690762 22.212363 0.535172 0.244728 0.362863 -20.159363 -5.915579 -29.039995 8.690065 17.247717 56.642575 4.742334 -15.515541 -5.300300 1.535173 -7.822037 -22.174820 -2.356049 -0.904718 0.679257 14.079906 8.667210 -39.117952 -20.203092 -20.666104 90.550530 -1.298572 3.783272 13.284301 -0.240312 3.068926 -8.478630 -4.199785 -0.961780 17.436213 0.245658 -2.000058 -1.387891 2.729892 -0.783595 -4.311904 -6.893078 -6.039523 -12.893798 9.394827 -6.522111 -2.126075 4.952092 -2.585802 4.061547 -3.639877 2.535443 -2.178343 -78.371030 -2.093178 36.911493 76.588316 -60.788427 -58.231979 0.190643 -2.908420 -25.278702 23.863475 16.129976 8.600641 -7.125000 0.000000 0.000000 -3.244362 50.658304 -0.433986 1.025999 -0.896202 -1.938392 83.655261 -16.490479 33.911911 -66.845582 55.779046 -48.201655 2.452814 0.172534 -6.288580 -23.585370 20.392407 -9.541218 7.125000 0.000000 0.000000 1.538141 -7.794728 1.315749
